<svg width="170" height="16" viewBox="0 0 170 16" fill="none" xmlns="http://www.w3.org/2000/svg">
<path fill-rule="evenodd" clip-rule="evenodd" d="M0 16.0002L9.5 0.000244141L19 16.0002H0Z" fill="url(#paint0_linear_63_146)"/>
<mask id="mask0_63_146" style="mask-type:alpha" maskUnits="userSpaceOnUse" x="27" y="0" width="143" height="17">
<path d="M31.108 15.5682V11.0273H33.811C34.647 11.0273 35.411 10.8942 36.103 10.6272C36.7635 10.3805 37.3667 10.0018 37.876 9.51425C38.3665 9.03804 38.7562 8.46808 39.022 7.83825C39.295 7.19625 39.432 6.49425 39.432 5.73025C39.432 4.98025 39.295 4.28125 39.022 3.63225C38.758 2.99848 38.3682 2.4249 37.876 1.94625C37.3668 1.45831 36.7635 1.07927 36.103 0.83225C35.411 0.56625 34.647 0.43225 33.811 0.43225H27V15.5682H31.108ZM33.595 7.35125H31.108V4.10825H33.595C34.085 4.10825 34.495 4.27025 34.827 4.59525C35.159 4.91925 35.324 5.29725 35.324 5.73025C35.324 6.16225 35.159 6.54025 34.827 6.86525C34.495 7.18925 34.085 7.35125 33.595 7.35125ZM46.135 15.5682V9.73025H51.649V15.5682H55.757V0.43225H51.649V6.05425H46.135V0.43225H42.027V15.5682H46.135ZM66.784 16.0002C67.9216 16.0088 69.0496 15.7919 70.103 15.3623C71.0994 14.959 72.0092 14.3684 72.783 13.6222C73.5357 12.8935 74.1417 12.0272 74.568 11.0702C75 10.1052 75.216 9.08125 75.216 8.00025C75.2211 6.94245 75.0001 5.89577 74.568 4.93025C74.142 3.97335 73.5363 3.10704 72.784 2.37825C72.0099 1.63203 71.0998 1.04134 70.103 0.63825C69.0493 0.208423 67.9209 -0.00841753 66.783 0.000249942C65.587 0.000249942 64.477 0.21325 63.454 0.63825C62.4615 1.04326 61.5553 1.6338 60.784 2.37825C60.0316 3.10704 59.426 3.97335 59 4.93025C58.5675 5.89569 58.3463 6.94238 58.351 8.00025C58.351 9.08125 58.568 10.1052 59 11.0702C59.426 12.0271 60.0316 12.8935 60.784 13.6222C61.5553 14.3667 62.4615 14.9572 63.454 15.3623C64.477 15.7873 65.587 16.0002 66.784 16.0002ZM66.784 12.3243C66.213 12.3283 65.6469 12.2181 65.119 12.0002C64.6143 11.7935 64.158 11.4844 63.779 11.0922C63.3988 10.695 63.0978 10.2291 62.892 9.71925C62.6721 9.17311 62.562 8.58898 62.568 8.00025C62.568 7.38025 62.676 6.80725 62.892 6.28125C63.0975 5.7715 63.3982 5.30554 63.778 4.90825C64.153 4.51825 64.6 4.21625 65.118 4.00025C65.6462 3.78225 66.2126 3.67209 66.784 3.67625C67.374 3.67625 67.926 3.78425 68.438 4.00025C68.95 4.21625 69.396 4.51925 69.778 4.90825C70.16 5.29825 70.459 5.75525 70.676 6.28125C70.892 6.80725 71 7.38125 71 8.00025C71 8.62025 70.892 9.19325 70.676 9.71925C70.469 10.2311 70.1639 10.6975 69.778 11.0922C69.396 11.4822 68.95 11.7842 68.438 12.0002C67.9142 12.2187 67.3515 12.329 66.784 12.3243ZM84.838 15.5682V4.10825H89.054V0.43225H76.514V4.10825H80.73V15.5682H84.838V15.5682ZM98.784 16.0002C99.9216 16.0088 101.05 15.7919 102.103 15.3623C103.099 14.959 104.009 14.3684 104.783 13.6222C105.536 12.8935 106.142 12.0272 106.568 11.0702C107 10.1052 107.216 9.08125 107.216 8.00025C107.221 6.94245 107 5.89577 106.568 4.93025C106.142 3.97335 105.536 3.10704 104.784 2.37825C104.01 1.63203 103.1 1.04134 102.103 0.63825C101.049 0.208423 99.9209 -0.00841753 98.783 0.000249942C97.587 0.000249942 96.477 0.21325 95.454 0.63825C94.4615 1.04326 93.5553 1.6338 92.784 2.37825C92.0316 3.10704 91.426 3.97335 91 4.93025C90.5675 5.89569 90.3463 6.94238 90.351 8.00025C90.351 9.08125 90.568 10.1052 91 11.0702C91.426 12.0271 92.0316 12.8935 92.784 13.6222C93.5553 14.3667 94.4615 14.9572 95.454 15.3623C96.477 15.7873 97.587 16.0002 98.784 16.0002ZM98.784 12.3243C98.213 12.3283 97.6469 12.2181 97.119 12.0002C96.6143 11.7935 96.158 11.4844 95.779 11.0922C95.3988 10.695 95.0978 10.2291 94.892 9.71925C94.6721 9.17311 94.562 8.58898 94.568 8.00025C94.568 7.38025 94.676 6.80725 94.892 6.28125C95.0975 5.7715 95.3982 5.30554 95.778 4.90825C96.153 4.51825 96.6 4.21625 97.118 4.00025C97.6462 3.78225 98.2126 3.67209 98.784 3.67625C99.374 3.67625 99.926 3.78425 100.438 4.00025C100.95 4.21625 101.396 4.51925 101.778 4.90825C102.16 5.29825 102.459 5.75525 102.676 6.28125C102.892 6.80725 103 7.38125 103 8.00025C103 8.62025 102.892 9.19325 102.676 9.71925C102.469 10.2311 102.164 10.6975 101.778 11.0922C101.396 11.4822 100.95 11.7842 100.438 12.0002C99.9142 12.2187 99.3515 12.329 98.784 12.3243V12.3243ZM114.568 16.0002C115.518 16.0002 116.369 15.8673 117.118 15.6003C117.868 15.3333 118.503 14.9732 119.022 14.5192C119.541 14.0652 119.937 13.5392 120.211 12.9412C120.485 12.3422 120.621 11.7053 120.621 11.0273C120.621 10.1473 120.449 9.42725 120.103 8.86525C119.775 8.322 119.332 7.85713 118.805 7.50325C118.279 7.15375 117.708 6.87723 117.108 6.68125L115.411 6.11925C114.962 5.97651 114.528 5.79204 114.114 5.56825C113.768 5.37325 113.594 5.10325 113.594 4.75725C113.594 4.42525 113.742 4.12725 114.038 3.85925C114.333 3.59325 114.726 3.45925 115.216 3.45925C115.591 3.45925 115.93 3.52125 116.232 3.64325C116.535 3.76625 116.795 3.90625 117.011 4.06525C117.271 4.23825 117.501 4.43225 117.703 4.64925L120.081 2.16225C119.713 1.73999 119.282 1.37587 118.805 1.08225C118.373 0.80725 117.825 0.55925 117.162 0.33525C116.5 0.11225 115.706 0.000249942 114.784 0.000249942C113.919 0.000249942 113.134 0.13025 112.427 0.39025C111.721 0.64925 111.119 0.99525 110.622 1.42725C110.124 1.85925 109.739 2.35725 109.465 2.91925C109.197 3.45676 109.057 4.04874 109.055 4.64925C109.055 5.52825 109.227 6.24925 109.573 6.81125C109.901 7.3544 110.344 7.81926 110.87 8.17325C111.396 8.52283 111.967 8.79935 112.568 8.99525C113.18 9.19625 113.746 9.38425 114.265 9.55725C114.784 9.73025 115.216 9.91425 115.562 10.1082C115.908 10.3032 116.082 10.5733 116.082 10.9183C116.082 11.3513 115.908 11.7302 115.562 12.0542C115.216 12.3782 114.741 12.5413 114.135 12.5413C113.645 12.5413 113.202 12.4583 112.805 12.2913C112.444 12.145 112.1 11.9606 111.778 11.7413C111.453 11.5016 111.155 11.2258 110.892 10.9192L108.514 13.4052C108.946 13.8952 109.458 14.3282 110.049 14.7032C110.553 15.0342 111.18 15.3333 111.929 15.6003C112.679 15.8673 113.559 16.0002 114.568 16.0002V16.0002ZM127.108 15.5682V7.13525L133.616 15.5682H137.162V0.43225H133.054V8.86525L126.568 0.43225H123V15.5682H127.108ZM143.324 15.5682L144.405 12.3243H149.378L150.459 15.5682H154.892L149.162 0.43225H144.622L138.892 15.5682H143.324ZM148.297 9.08125H145.487L146.892 4.64925L148.297 9.08125ZM160.73 15.5682V11.0273H163.432C164.268 11.0273 165.032 10.8942 165.724 10.6272C166.384 10.3805 166.988 10.0018 167.497 9.51425C167.987 9.03804 168.377 8.46808 168.643 7.83825C168.917 7.19625 169.054 6.49425 169.054 5.73025C169.054 4.98025 168.917 4.28125 168.644 3.63225C168.38 2.9984 167.99 2.4248 167.497 1.94625C166.988 1.45831 166.385 1.07927 165.724 0.83225C165.032 0.56625 164.268 0.43225 163.432 0.43225H156.622V15.5682H160.73V15.5682ZM163.216 7.35125H160.73V4.10825H163.216C163.706 4.10825 164.117 4.27025 164.449 4.59525C164.78 4.91925 164.946 5.29725 164.946 5.73025C164.946 6.16225 164.78 6.54025 164.449 6.86525C164.117 7.18925 163.706 7.35125 163.216 7.35125Z" fill="black"/>
</mask>
<g mask="url(#mask0_63_146)">
<rect x="27" y="-4" width="149" height="23" fill="white"/>
</g>
<defs>
<linearGradient id="paint0_linear_63_146" x1="-2.84902e-07" y1="13.6734" x2="7.45706" y2="1.11413" gradientUnits="userSpaceOnUse">
<stop stop-color="#FFC593"/>
<stop offset="0.51945" stop-color="#BC7198"/>
<stop offset="1" stop-color="#5A77FF"/>
</linearGradient>
</defs>
</svg>
